<svg id="svg" version="1.1" width="400" height="269.38775510204084" viewBox="0 0 400 269.38775510204084" xmlns="http://www.w3.org/2000/svg" xmlns:xlink="http://www.w3.org/1999/xlink" ><g id="svgg"><path id="path0" d="M130.997 1.018 C 130.997 2.331,130.492 3.024,128.700 4.170 C 127.743 4.782,127.053 5.476,126.685 6.198 C 126.317 6.920,125.659 7.582,124.758 8.136 C 123.875 8.680,123.064 9.488,122.470 10.417 C 121.872 11.351,121.170 12.050,120.468 12.408 C 119.762 12.768,119.062 13.466,118.452 14.421 C 117.861 15.345,117.071 16.143,116.306 16.592 C 115.602 17.004,114.816 17.771,114.430 18.422 C 114.064 19.038,113.134 20.027,112.363 20.620 C 111.591 21.213,110.586 22.213,110.130 22.842 C 109.673 23.472,108.794 24.344,108.177 24.781 C 107.560 25.218,106.677 26.126,106.214 26.798 C 105.752 27.470,104.836 28.335,104.178 28.720 C 103.444 29.150,102.744 29.855,102.363 30.545 C 101.988 31.224,101.139 32.083,100.215 32.719 C 99.245 33.386,98.464 34.189,98.077 34.918 C 97.670 35.686,97.036 36.320,96.167 36.827 C 95.284 37.343,94.552 38.081,93.884 39.130 C 93.307 40.035,92.585 40.804,92.136 40.990 C 91.420 41.286,90.809 41.912,89.249 43.945 C 88.895 44.407,88.138 45.079,87.566 45.440 C 86.995 45.801,86.225 46.575,85.855 47.160 C 85.486 47.745,84.520 48.725,83.710 49.336 C 82.900 49.948,81.997 50.856,81.703 51.354 C 81.410 51.852,80.621 52.660,79.951 53.151 C 79.281 53.642,78.361 54.560,77.907 55.192 C 77.452 55.824,76.471 56.779,75.727 57.314 C 74.982 57.849,74.149 58.723,73.875 59.257 C 73.591 59.811,72.703 60.700,71.804 61.330 C 70.878 61.980,69.947 62.919,69.538 63.617 C 69.116 64.339,68.376 65.076,67.644 65.503 C 66.894 65.941,66.060 66.780,65.426 67.736 C 64.786 68.699,64.025 69.463,63.373 69.796 C 62.739 70.119,62.000 70.850,61.467 71.681 C 60.988 72.427,59.992 73.481,59.253 74.023 C 58.514 74.565,57.615 75.476,57.255 76.047 C 56.894 76.618,56.120 77.387,55.535 77.757 C 54.949 78.127,53.977 79.096,53.375 79.911 C 52.773 80.726,51.921 81.579,51.482 81.806 C 51.044 82.033,50.198 82.877,49.603 83.682 C 49.009 84.488,47.971 85.525,47.298 85.988 C 46.625 86.451,45.777 87.302,45.413 87.878 C 45.049 88.455,44.076 89.425,43.251 90.035 C 42.426 90.644,41.386 91.735,40.941 92.458 C 40.496 93.182,39.906 93.845,39.630 93.933 C 38.746 94.214,37.768 95.143,36.761 96.660 C 36.152 97.577,35.387 98.338,34.741 98.668 C 34.169 98.960,33.498 99.530,33.249 99.936 C 32.842 100.602,29.392 104.230,27.550 105.930 C 27.148 106.301,26.334 107.138,25.741 107.791 C 25.148 108.445,24.258 109.354,23.763 109.813 C 23.267 110.272,22.479 111.044,22.011 111.529 C 21.542 112.014,20.635 112.924,19.994 113.551 C 18.891 114.630,17.894 115.638,15.801 117.790 C 15.296 118.309,14.493 119.027,14.015 119.386 C 13.537 119.744,12.801 120.599,12.379 121.285 C 11.926 122.022,11.231 122.713,10.680 122.976 C 10.146 123.230,9.195 124.162,8.451 125.159 C 7.737 126.116,6.741 127.121,6.236 127.392 C 5.732 127.664,5.050 128.313,4.719 128.835 C 3.539 130.701,2.439 131.536,1.162 131.536 L 0.000 131.536 0.000 133.154 L 0.000 134.771 0.943 134.771 C 1.981 134.771,2.261 135.012,3.608 137.062 C 4.094 137.803,5.067 138.847,5.769 139.380 C 6.472 139.914,7.266 140.712,7.534 141.153 C 7.802 141.594,8.761 142.599,9.665 143.385 C 10.570 144.171,11.543 145.211,11.828 145.695 C 12.114 146.179,12.996 147.067,13.788 147.669 C 14.581 148.271,15.649 149.386,16.163 150.146 C 16.677 150.906,17.419 151.695,17.814 151.899 C 18.208 152.103,19.054 152.911,19.695 153.696 C 20.335 154.480,21.595 155.849,22.496 156.739 C 24.326 158.547,28.517 162.899,36.518 171.299 C 39.481 174.409,42.574 177.634,43.392 178.464 C 44.210 179.295,47.001 182.184,49.596 184.885 C 52.190 187.586,55.891 191.394,57.819 193.348 C 59.748 195.302,61.669 197.361,62.088 197.924 C 62.508 198.487,63.251 199.210,63.740 199.531 C 64.230 199.852,65.098 200.767,65.671 201.566 C 66.243 202.364,67.224 203.373,67.849 203.807 C 68.475 204.242,69.361 205.141,69.818 205.805 C 70.275 206.469,71.317 207.517,72.133 208.133 C 72.950 208.750,73.829 209.664,74.086 210.166 C 74.343 210.667,75.151 211.529,75.882 212.081 C 76.613 212.634,77.648 213.664,78.182 214.371 C 78.717 215.078,79.594 215.955,80.131 216.320 C 80.669 216.686,81.490 217.538,81.955 218.215 C 82.421 218.892,83.366 219.851,84.056 220.347 C 84.746 220.843,85.613 221.734,85.984 222.327 C 86.354 222.920,86.971 223.593,87.354 223.821 C 88.069 224.247,89.783 226.074,90.646 227.328 C 90.912 227.716,91.543 228.245,92.047 228.504 C 92.551 228.763,93.427 229.643,93.994 230.458 C 94.561 231.274,95.588 232.305,96.276 232.749 C 97.052 233.250,97.764 234.005,98.149 234.735 C 98.559 235.512,99.275 236.246,100.259 236.897 C 101.193 237.516,101.983 238.309,102.379 239.026 C 102.748 239.695,103.540 240.517,104.288 241.007 C 104.991 241.467,105.921 242.378,106.355 243.032 C 106.788 243.685,107.726 244.646,108.439 245.166 C 109.151 245.687,109.976 246.523,110.271 247.023 C 110.567 247.524,111.472 248.435,112.282 249.046 C 113.092 249.658,114.052 250.630,114.416 251.206 C 114.780 251.782,115.636 252.638,116.320 253.108 C 117.003 253.578,117.962 254.588,118.451 255.353 C 118.994 256.202,119.747 256.957,120.385 257.293 C 121.026 257.630,121.813 258.422,122.426 259.348 C 123.059 260.304,123.917 261.157,124.775 261.685 C 125.655 262.227,126.319 262.896,126.680 263.603 C 127.001 264.233,127.714 264.995,128.375 265.416 C 130.450 266.737,130.997 267.384,130.997 268.514 L 130.997 269.542 265.499 269.542 L 400.000 269.542 400.000 134.771 L 400.000 0.000 265.499 0.000 L 130.997 0.000 130.997 1.018 M370.904 28.264 C 371.563 28.688,372.377 29.335,372.713 29.701 L 373.324 30.368 373.324 134.908 L 373.324 239.449 372.579 240.234 C 372.168 240.665,371.334 241.313,370.725 241.672 L 369.616 242.326 257.517 242.254 L 145.418 242.183 143.935 241.382 C 142.284 240.489,139.765 238.044,128.827 226.710 C 124.906 222.647,120.000 217.593,117.925 215.477 C 113.915 211.390,109.564 206.876,108.895 206.109 C 108.673 205.854,107.884 205.058,107.143 204.340 C 106.402 203.623,105.367 202.565,104.844 201.989 C 104.322 201.414,103.502 200.580,103.023 200.135 C 102.545 199.690,101.092 198.209,99.796 196.843 C 98.500 195.477,97.106 194.022,96.698 193.608 C 96.291 193.195,95.302 192.190,94.501 191.375 C 93.700 190.559,92.650 189.528,92.169 189.084 C 91.687 188.639,90.857 187.804,90.323 187.229 C 89.790 186.654,88.352 185.185,87.129 183.964 C 85.906 182.744,84.906 181.630,84.906 181.490 C 84.906 181.350,84.363 180.853,83.700 180.386 C 83.037 179.919,82.056 178.926,81.519 178.179 C 80.983 177.433,80.049 176.488,79.444 176.080 C 78.838 175.671,77.960 174.791,77.492 174.124 C 77.024 173.457,76.011 172.426,75.240 171.833 C 74.470 171.240,73.570 170.306,73.240 169.757 C 72.911 169.209,72.045 168.336,71.316 167.818 C 70.586 167.300,69.616 166.329,69.159 165.661 C 68.703 164.992,67.817 164.078,67.192 163.629 C 66.567 163.180,65.596 162.198,65.036 161.447 C 64.475 160.696,63.627 159.852,63.151 159.571 C 62.675 159.290,61.863 158.473,61.347 157.754 C 60.831 157.036,59.861 156.055,59.193 155.575 C 58.524 155.095,57.638 154.199,57.223 153.584 C 56.808 152.970,55.923 152.085,55.256 151.619 C 54.589 151.152,53.604 150.112,53.068 149.307 C 52.491 148.441,51.646 147.593,50.998 147.231 C 50.330 146.857,49.582 146.095,49.077 145.275 C 48.552 144.421,47.764 143.633,46.913 143.109 C 46.072 142.591,45.344 141.866,44.952 141.157 C 44.592 140.504,43.793 139.677,43.056 139.194 C 40.684 137.642,40.701 137.674,40.701 134.906 C 40.701 132.138,40.684 132.169,43.056 130.617 C 43.793 130.134,44.592 129.308,44.952 128.654 C 45.341 127.950,46.071 127.220,46.895 126.713 C 47.743 126.191,48.555 125.371,49.164 124.418 C 49.760 123.487,50.490 122.742,51.127 122.415 C 51.730 122.105,52.526 121.317,53.092 120.468 C 53.615 119.684,54.583 118.663,55.243 118.200 C 55.903 117.737,56.812 116.842,57.264 116.209 C 57.716 115.577,58.655 114.613,59.351 114.066 C 60.047 113.520,60.990 112.553,61.448 111.918 C 61.906 111.283,62.659 110.534,63.121 110.253 C 63.583 109.972,64.401 109.160,64.939 108.449 C 65.476 107.738,66.503 106.712,67.220 106.170 C 67.938 105.628,68.786 104.718,69.105 104.149 C 69.425 103.579,70.348 102.651,71.157 102.086 C 71.966 101.520,72.963 100.519,73.373 99.860 C 73.783 99.201,74.588 98.366,75.162 98.004 C 75.736 97.641,76.496 96.958,76.850 96.484 C 77.436 95.701,78.074 95.042,80.458 92.758 C 80.903 92.332,81.727 91.426,82.289 90.744 C 82.851 90.063,83.640 89.310,84.041 89.072 C 84.442 88.834,85.135 88.099,85.580 87.440 C 86.024 86.781,86.860 85.912,87.437 85.510 C 88.014 85.108,88.947 84.155,89.512 83.391 C 90.076 82.627,90.970 81.735,91.499 81.408 C 92.028 81.081,92.831 80.275,93.284 79.617 C 93.737 78.958,94.736 77.923,95.504 77.317 C 96.272 76.711,97.110 75.897,97.367 75.508 C 97.623 75.120,98.715 73.941,99.792 72.891 C 100.870 71.840,102.122 70.565,102.575 70.059 C 103.028 69.552,103.816 68.754,104.327 68.286 C 104.838 67.817,107.197 65.408,109.569 62.932 C 111.941 60.456,115.519 56.755,117.520 54.707 C 119.522 52.660,122.251 49.852,123.585 48.468 C 124.919 47.083,128.255 43.638,130.997 40.812 C 133.740 37.986,137.293 34.324,138.894 32.674 C 142.405 29.056,144.111 27.968,146.631 27.738 C 147.594 27.650,198.180 27.559,259.044 27.536 L 369.706 27.493 370.904 28.264 M327.493 55.694 C 326.974 56.069,325.926 56.657,325.164 57.001 C 324.147 57.460,323.483 58.025,322.673 59.122 C 322.065 59.945,321.024 60.992,320.359 61.450 C 319.694 61.907,318.848 62.793,318.479 63.418 C 318.101 64.060,317.262 64.898,316.554 65.342 C 315.800 65.815,314.933 66.700,314.381 67.563 C 313.786 68.494,313.083 69.193,312.382 69.551 C 311.680 69.908,310.977 70.607,310.380 71.541 C 309.806 72.438,309.008 73.244,308.259 73.683 C 307.521 74.116,306.748 74.891,306.253 75.695 C 305.750 76.513,304.985 77.276,304.214 77.728 C 303.442 78.180,302.712 78.907,302.265 79.670 C 301.822 80.426,301.020 81.228,300.153 81.783 C 299.321 82.315,298.412 83.210,297.909 83.993 C 297.435 84.731,296.626 85.545,296.068 85.845 C 295.520 86.139,294.605 87.011,294.034 87.784 C 293.463 88.557,292.452 89.564,291.787 90.021 C 291.123 90.479,290.260 91.397,289.870 92.063 C 289.432 92.810,288.696 93.545,287.945 93.985 C 287.190 94.427,286.389 95.230,285.830 96.103 C 285.278 96.967,284.471 97.778,283.735 98.209 C 283.010 98.634,282.263 99.380,281.841 100.100 C 281.458 100.754,280.547 101.718,279.817 102.242 C 279.086 102.767,278.110 103.748,277.646 104.422 C 277.182 105.096,276.278 105.955,275.636 106.331 C 274.931 106.744,274.142 107.543,273.639 108.352 C 273.128 109.174,272.308 109.998,271.511 110.491 C 270.726 110.977,269.925 111.777,269.479 112.523 C 268.475 114.200,267.752 114.499,266.163 113.892 C 264.875 113.400,264.265 112.805,219.974 68.801 C 207.033 55.943,205.908 54.907,205.537 55.507 C 205.452 55.644,204.477 56.187,203.370 56.712 C 201.748 57.482,201.167 57.933,200.377 59.031 C 199.839 59.781,198.858 60.766,198.198 61.220 C 197.539 61.674,196.630 62.645,196.179 63.377 C 195.658 64.225,194.976 64.905,194.301 65.249 C 193.621 65.596,192.910 66.307,192.316 67.235 C 191.381 68.697,190.221 69.811,189.633 69.811 C 188.692 69.811,188.140 71.032,188.140 73.113 C 188.140 75.812,188.381 76.346,190.116 77.499 C 190.918 78.031,191.961 79.004,192.433 79.662 C 192.905 80.319,193.819 81.220,194.465 81.665 C 195.110 82.109,195.908 82.908,196.237 83.441 C 196.567 83.974,197.457 84.899,198.216 85.497 C 198.975 86.095,199.944 87.117,200.369 87.767 C 200.794 88.417,201.249 88.949,201.379 88.949 C 201.790 88.949,203.786 90.891,204.618 92.101 C 205.058 92.740,205.839 93.479,206.355 93.743 C 206.871 94.008,207.750 94.887,208.308 95.697 C 208.867 96.507,209.887 97.534,210.577 97.978 C 211.266 98.423,212.085 99.237,212.395 99.786 C 212.705 100.336,213.323 101.064,213.767 101.403 C 215.723 102.900,216.495 103.634,216.864 104.347 C 217.081 104.767,217.896 105.581,218.674 106.156 C 219.453 106.731,220.445 107.714,220.879 108.341 C 221.314 108.968,222.195 109.843,222.838 110.285 C 223.480 110.727,224.304 111.560,224.668 112.137 C 225.032 112.713,225.989 113.672,226.794 114.267 C 227.600 114.862,228.519 115.812,228.837 116.377 C 229.154 116.942,229.963 117.751,230.634 118.176 C 231.323 118.612,232.276 119.584,232.825 120.411 C 233.424 121.314,234.194 122.078,234.833 122.404 C 235.496 122.742,236.211 123.467,236.819 124.417 C 237.429 125.371,238.240 126.191,239.089 126.713 C 239.913 127.220,240.643 127.950,241.031 128.654 C 241.392 129.308,242.191 130.134,242.928 130.617 C 245.299 132.168,245.283 132.139,245.283 134.897 C 245.283 137.636,245.109 137.947,242.805 139.323 C 242.258 139.650,241.459 140.488,241.029 141.186 C 240.590 141.899,239.719 142.789,239.040 143.219 C 238.375 143.639,237.439 144.581,236.960 145.312 C 236.482 146.044,235.620 146.939,235.045 147.302 C 234.471 147.664,233.780 148.280,233.510 148.670 C 232.539 150.072,231.159 151.524,230.446 151.893 C 230.047 152.099,229.337 152.866,228.867 153.597 C 228.398 154.329,227.538 155.242,226.956 155.627 C 226.374 156.012,225.414 156.982,224.823 157.782 C 224.232 158.583,223.325 159.499,222.808 159.819 C 222.290 160.139,221.432 161.006,220.899 161.747 C 220.367 162.488,219.399 163.470,218.748 163.929 C 218.096 164.388,217.193 165.335,216.740 166.034 C 216.287 166.733,215.433 167.624,214.843 168.015 C 214.252 168.406,213.285 169.381,212.694 170.181 C 212.103 170.982,211.190 171.902,210.666 172.225 C 210.142 172.549,209.454 173.200,209.136 173.671 C 208.819 174.143,207.756 175.326,206.773 176.302 C 205.790 177.277,204.494 178.611,203.893 179.267 C 203.291 179.922,202.382 180.874,201.871 181.382 C 201.361 181.890,200.013 183.285,198.876 184.482 C 197.739 185.678,195.192 188.308,193.216 190.325 C 188.445 195.194,188.662 194.918,188.260 196.648 C 187.805 198.607,188.106 199.298,189.785 200.149 C 190.691 200.608,191.350 201.236,192.090 202.347 C 192.743 203.327,193.542 204.131,194.249 204.519 C 194.920 204.888,195.708 205.661,196.209 206.442 C 196.701 207.208,197.658 208.154,198.524 208.729 C 199.336 209.268,200.000 209.825,200.000 209.966 C 200.000 210.458,201.707 212.164,202.713 212.677 C 203.269 212.961,204.291 213.683,204.982 214.282 C 206.385 215.496,206.353 215.501,207.876 213.848 C 208.479 213.195,209.451 212.390,210.038 212.061 C 210.628 211.729,211.391 210.971,211.748 210.363 C 212.102 209.758,213.054 208.787,213.863 208.203 C 214.672 207.620,215.669 206.616,216.078 205.973 C 216.486 205.329,217.343 204.443,217.981 204.004 C 218.620 203.565,219.631 202.543,220.229 201.734 C 220.827 200.924,221.778 199.971,222.341 199.615 C 222.905 199.259,223.813 198.346,224.359 197.587 C 224.905 196.827,225.894 195.823,226.557 195.355 C 227.220 194.888,227.763 194.401,227.763 194.272 C 227.763 194.144,230.605 191.166,234.078 187.653 C 237.551 184.141,240.750 180.903,241.186 180.458 C 241.622 180.013,242.510 179.150,243.159 178.539 C 243.809 177.928,244.779 176.957,245.317 176.382 C 245.855 175.807,246.740 174.912,247.286 174.394 C 248.523 173.217,250.357 171.360,254.313 167.281 C 255.499 166.058,257.814 163.671,259.458 161.976 C 266.305 154.918,267.965 154.129,269.478 157.211 C 269.665 157.592,270.252 158.249,270.781 158.669 C 271.311 159.090,272.204 159.904,272.765 160.479 C 273.326 161.055,274.228 161.964,274.769 162.501 C 275.310 163.038,276.288 164.023,276.943 164.690 C 277.597 165.357,278.504 166.267,278.958 166.712 C 280.017 167.747,281.733 169.464,282.682 170.435 C 283.090 170.853,283.969 171.729,284.636 172.384 C 285.303 173.038,286.288 174.016,286.825 174.557 C 287.362 175.098,288.272 175.997,288.847 176.553 C 289.422 177.110,290.182 177.952,290.536 178.425 C 290.890 178.898,291.639 179.576,292.202 179.931 C 292.764 180.286,293.600 181.122,294.059 181.790 C 294.518 182.457,295.433 183.374,296.092 183.827 C 296.750 184.281,297.660 185.190,298.113 185.849 C 298.566 186.508,299.488 187.426,300.162 187.889 C 300.835 188.353,301.800 189.307,302.305 190.011 C 302.811 190.714,303.751 191.623,304.395 192.030 C 305.039 192.437,305.939 193.341,306.396 194.039 C 306.853 194.736,307.762 195.646,308.417 196.060 C 309.072 196.474,309.996 197.405,310.470 198.129 C 310.968 198.890,311.835 199.740,312.527 200.145 C 313.268 200.579,314.036 201.353,314.542 202.177 C 315.046 202.995,315.854 203.812,316.643 204.300 C 317.409 204.774,318.217 205.582,318.652 206.308 C 319.052 206.976,319.850 207.820,320.426 208.184 C 321.415 208.808,322.142 209.574,323.262 211.171 C 323.529 211.551,324.256 212.121,324.879 212.437 C 325.501 212.752,326.573 213.479,327.261 214.052 C 327.949 214.625,328.601 215.094,328.711 215.094 C 329.328 215.094,332.794 211.659,338.991 204.905 C 341.535 202.133,343.991 199.589,344.450 199.251 C 346.592 197.671,345.414 194.885,340.665 190.295 C 338.535 188.237,336.704 186.456,336.596 186.336 C 336.488 186.216,332.728 182.393,328.240 177.839 C 323.752 173.286,316.422 165.826,311.949 161.262 C 307.477 156.699,300.169 149.275,295.709 144.765 L 287.601 136.564 287.601 134.767 L 287.601 132.969 291.449 129.085 C 293.566 126.950,297.963 122.429,301.220 119.039 C 308.125 111.855,313.977 105.820,316.809 102.965 C 317.912 101.853,319.030 100.597,319.295 100.175 C 319.559 99.752,320.233 99.117,320.793 98.763 C 321.352 98.410,322.306 97.450,322.911 96.631 C 323.516 95.812,324.488 94.826,325.070 94.441 C 325.652 94.056,326.515 93.137,326.989 92.399 C 327.462 91.661,328.285 90.779,328.817 90.439 C 329.857 89.775,330.632 88.973,331.348 87.819 C 331.595 87.420,332.333 86.725,332.988 86.275 C 333.642 85.825,334.628 84.842,335.180 84.091 C 335.731 83.340,336.613 82.433,337.139 82.075 C 337.666 81.717,338.534 80.846,339.068 80.139 C 339.603 79.432,340.636 78.403,341.365 77.853 C 342.093 77.302,342.939 76.447,343.245 75.953 C 343.551 75.459,344.330 74.362,344.976 73.515 C 346.356 71.706,346.347 70.868,344.936 70.130 C 344.460 69.881,343.151 68.767,342.028 67.655 C 340.904 66.543,338.297 64.057,336.234 62.129 C 334.171 60.202,331.682 57.807,330.704 56.806 C 328.691 54.747,328.768 54.774,327.493 55.694 " stroke="none" fill="#000000" fill-rule="evenodd"></path><path id="path1" d="M0.000 65.768 L 0.000 131.536 1.162 131.536 C 2.439 131.536,3.539 130.701,4.719 128.835 C 5.050 128.313,5.732 127.664,6.236 127.392 C 6.741 127.121,7.737 126.116,8.451 125.159 C 9.195 124.162,10.146 123.230,10.680 122.976 C 11.231 122.713,11.926 122.022,12.379 121.285 C 12.801 120.599,13.537 119.744,14.015 119.386 C 14.493 119.027,15.325 118.277,15.865 117.719 C 16.405 117.161,17.370 116.190,18.011 115.562 C 19.129 114.466,20.398 113.184,22.077 111.456 C 22.509 111.011,23.267 110.272,23.763 109.813 C 24.258 109.354,25.148 108.445,25.741 107.791 C 26.334 107.138,27.148 106.301,27.550 105.930 C 29.392 104.230,32.842 100.602,33.249 99.936 C 33.498 99.530,34.169 98.960,34.741 98.668 C 35.387 98.338,36.152 97.577,36.761 96.660 C 37.768 95.143,38.746 94.214,39.630 93.933 C 39.906 93.845,40.496 93.182,40.941 92.458 C 41.386 91.735,42.426 90.644,43.251 90.035 C 44.076 89.425,45.049 88.455,45.413 87.878 C 45.777 87.302,46.625 86.451,47.298 85.988 C 47.971 85.525,49.009 84.488,49.603 83.682 C 50.198 82.877,51.044 82.033,51.482 81.806 C 51.921 81.579,52.773 80.726,53.375 79.911 C 53.977 79.096,54.949 78.127,55.535 77.757 C 56.120 77.387,56.894 76.618,57.255 76.047 C 57.615 75.476,58.514 74.565,59.253 74.023 C 59.992 73.481,60.988 72.427,61.467 71.681 C 62.000 70.850,62.739 70.119,63.373 69.796 C 64.025 69.463,64.786 68.699,65.426 67.736 C 66.060 66.780,66.894 65.941,67.644 65.503 C 68.376 65.076,69.116 64.339,69.538 63.617 C 69.947 62.919,70.878 61.980,71.804 61.330 C 72.703 60.700,73.591 59.811,73.875 59.257 C 74.149 58.723,74.982 57.849,75.727 57.314 C 76.471 56.779,77.452 55.824,77.907 55.192 C 78.361 54.560,79.281 53.642,79.951 53.151 C 80.621 52.660,81.410 51.852,81.703 51.354 C 81.997 50.856,82.900 49.948,83.710 49.336 C 84.520 48.725,85.486 47.745,85.855 47.160 C 86.225 46.575,86.995 45.801,87.566 45.440 C 88.138 45.079,88.895 44.407,89.249 43.945 C 90.809 41.912,91.420 41.286,92.136 40.990 C 92.585 40.804,93.307 40.035,93.884 39.130 C 94.552 38.081,95.284 37.343,96.167 36.827 C 97.036 36.320,97.670 35.686,98.077 34.918 C 98.464 34.189,99.245 33.386,100.215 32.719 C 101.139 32.083,101.988 31.224,102.363 30.545 C 102.744 29.855,103.444 29.150,104.178 28.720 C 104.836 28.335,105.752 27.470,106.214 26.798 C 106.677 26.126,107.560 25.218,108.177 24.781 C 108.794 24.344,109.673 23.472,110.130 22.842 C 110.586 22.213,111.591 21.213,112.363 20.620 C 113.134 20.027,114.064 19.038,114.430 18.422 C 114.816 17.771,115.602 17.004,116.306 16.592 C 117.071 16.143,117.861 15.345,118.452 14.421 C 119.062 13.466,119.762 12.768,120.468 12.408 C 121.170 12.050,121.872 11.351,122.470 10.417 C 123.064 9.488,123.875 8.680,124.758 8.136 C 125.659 7.582,126.317 6.920,126.685 6.198 C 127.053 5.476,127.743 4.782,128.700 4.170 C 130.492 3.024,130.997 2.331,130.997 1.018 L 130.997 0.000 65.499 0.000 L 0.000 0.000 0.000 65.768 M146.631 27.738 C 144.111 27.968,142.405 29.056,138.894 32.674 C 137.293 34.324,133.740 37.986,130.997 40.812 C 128.255 43.638,124.919 47.083,123.585 48.468 C 122.251 49.852,119.522 52.660,117.520 54.707 C 115.519 56.755,111.941 60.456,109.569 62.932 C 107.197 65.408,104.838 67.817,104.327 68.286 C 103.816 68.754,103.028 69.552,102.575 70.059 C 102.122 70.565,100.870 71.840,99.792 72.891 C 98.715 73.941,97.623 75.120,97.367 75.508 C 97.110 75.897,96.272 76.711,95.504 77.317 C 94.736 77.923,93.737 78.958,93.284 79.617 C 92.831 80.275,92.028 81.081,91.499 81.408 C 90.970 81.735,90.076 82.627,89.512 83.391 C 88.947 84.155,88.014 85.108,87.437 85.510 C 86.860 85.912,86.024 86.781,85.580 87.440 C 85.135 88.099,84.442 88.834,84.041 89.072 C 83.640 89.310,82.851 90.063,82.289 90.744 C 81.727 91.426,80.903 92.332,80.458 92.758 C 78.074 95.042,77.436 95.701,76.850 96.484 C 76.496 96.958,75.736 97.641,75.162 98.004 C 74.588 98.366,73.783 99.201,73.373 99.860 C 72.963 100.519,71.966 101.520,71.157 102.086 C 70.348 102.651,69.425 103.579,69.105 104.149 C 68.786 104.718,67.938 105.628,67.220 106.170 C 66.503 106.712,65.476 107.738,64.939 108.449 C 64.401 109.160,63.583 109.972,63.121 110.253 C 62.659 110.534,61.906 111.283,61.448 111.918 C 60.990 112.553,60.047 113.520,59.351 114.066 C 58.655 114.613,57.716 115.577,57.264 116.209 C 56.812 116.842,55.903 117.737,55.243 118.200 C 54.583 118.663,53.615 119.684,53.092 120.468 C 52.526 121.317,51.730 122.105,51.127 122.415 C 50.490 122.742,49.760 123.487,49.164 124.418 C 48.555 125.371,47.743 126.191,46.895 126.713 C 46.071 127.220,45.341 127.950,44.952 128.654 C 44.592 129.308,43.793 130.134,43.056 130.617 C 40.684 132.169,40.701 132.138,40.701 134.906 C 40.701 137.674,40.684 137.642,43.056 139.194 C 43.793 139.677,44.592 140.504,44.952 141.157 C 45.344 141.866,46.072 142.591,46.913 143.109 C 47.764 143.633,48.552 144.421,49.077 145.275 C 49.582 146.095,50.330 146.857,50.998 147.231 C 51.646 147.593,52.491 148.441,53.068 149.307 C 53.604 150.112,54.589 151.152,55.256 151.619 C 55.923 152.085,56.808 152.970,57.223 153.584 C 57.638 154.199,58.524 155.095,59.193 155.575 C 59.861 156.055,60.831 157.036,61.347 157.754 C 61.863 158.473,62.675 159.290,63.151 159.571 C 63.627 159.852,64.475 160.696,65.036 161.447 C 65.596 162.198,66.567 163.180,67.192 163.629 C 67.817 164.078,68.703 164.992,69.159 165.661 C 69.616 166.329,70.586 167.300,71.316 167.818 C 72.045 168.336,72.911 169.209,73.240 169.757 C 73.570 170.306,74.470 171.240,75.240 171.833 C 76.011 172.426,77.024 173.457,77.492 174.124 C 77.960 174.791,78.838 175.671,79.444 176.080 C 80.049 176.488,80.983 177.433,81.519 178.179 C 82.056 178.926,83.037 179.919,83.700 180.386 C 84.363 180.853,84.906 181.350,84.906 181.490 C 84.906 181.630,85.906 182.744,87.129 183.964 C 88.352 185.185,89.790 186.654,90.323 187.229 C 90.857 187.804,91.687 188.639,92.169 189.084 C 92.650 189.528,93.700 190.559,94.501 191.375 C 95.302 192.190,96.291 193.195,96.698 193.608 C 97.106 194.022,98.500 195.477,99.796 196.843 C 101.092 198.209,102.545 199.690,103.023 200.135 C 103.502 200.580,104.322 201.414,104.844 201.989 C 105.367 202.565,106.402 203.623,107.143 204.340 C 107.884 205.058,108.673 205.854,108.895 206.109 C 109.564 206.876,113.915 211.390,117.925 215.477 C 120.000 217.593,124.906 222.647,128.827 226.710 C 139.765 238.044,142.284 240.489,143.935 241.382 L 145.418 242.183 257.517 242.254 L 369.616 242.326 370.725 241.672 C 371.334 241.313,372.168 240.665,372.579 240.234 L 373.324 239.449 373.324 134.908 L 373.324 30.368 372.713 29.701 C 372.377 29.335,371.563 28.688,370.904 28.264 L 369.706 27.493 259.044 27.536 C 198.180 27.559,147.594 27.650,146.631 27.738 M330.704 56.806 C 331.682 57.807,334.171 60.202,336.234 62.129 C 338.297 64.057,340.904 66.543,342.028 67.655 C 343.151 68.767,344.460 69.881,344.936 70.130 C 346.347 70.868,346.356 71.706,344.976 73.515 C 344.330 74.362,343.551 75.459,343.245 75.953 C 342.939 76.447,342.093 77.302,341.365 77.853 C 340.636 78.403,339.603 79.432,339.068 80.139 C 338.534 80.846,337.666 81.717,337.139 82.075 C 336.613 82.433,335.731 83.340,335.180 84.091 C 334.628 84.842,333.642 85.825,332.988 86.275 C 332.333 86.725,331.595 87.420,331.348 87.819 C 330.632 88.973,329.857 89.775,328.817 90.439 C 328.285 90.779,327.462 91.661,326.989 92.399 C 326.515 93.137,325.652 94.056,325.070 94.441 C 324.488 94.826,323.516 95.812,322.911 96.631 C 322.306 97.450,321.352 98.410,320.793 98.763 C 320.233 99.117,319.559 99.752,319.295 100.175 C 319.030 100.597,317.912 101.853,316.809 102.965 C 313.977 105.820,308.125 111.855,301.220 119.039 C 297.963 122.429,293.566 126.950,291.449 129.085 L 287.601 132.969 287.601 134.767 L 287.601 136.564 295.709 144.765 C 300.169 149.275,307.477 156.699,311.949 161.262 C 316.422 165.826,323.752 173.286,328.240 177.839 C 332.728 182.393,336.488 186.216,336.596 186.336 C 336.704 186.456,338.535 188.237,340.665 190.295 C 345.414 194.885,346.592 197.671,344.450 199.251 C 343.991 199.589,341.535 202.133,338.991 204.905 C 332.794 211.659,329.328 215.094,328.711 215.094 C 328.601 215.094,327.949 214.625,327.261 214.052 C 326.573 213.479,325.501 212.752,324.879 212.437 C 324.256 212.121,323.529 211.551,323.262 211.171 C 322.142 209.574,321.415 208.808,320.426 208.184 C 319.850 207.820,319.052 206.976,318.652 206.308 C 318.217 205.582,317.409 204.774,316.643 204.300 C 315.854 203.812,315.046 202.995,314.542 202.177 C 314.036 201.353,313.268 200.579,312.527 200.145 C 311.835 199.740,310.968 198.890,310.470 198.129 C 309.996 197.405,309.072 196.474,308.417 196.060 C 307.762 195.646,306.853 194.736,306.396 194.039 C 305.939 193.341,305.039 192.437,304.395 192.030 C 303.751 191.623,302.811 190.714,302.305 190.011 C 301.800 189.307,300.835 188.353,300.162 187.889 C 299.488 187.426,298.566 186.508,298.113 185.849 C 297.660 185.190,296.750 184.281,296.092 183.827 C 295.433 183.374,294.518 182.457,294.059 181.790 C 293.600 181.122,292.764 180.286,292.202 179.931 C 291.639 179.576,290.890 178.898,290.536 178.425 C 290.182 177.952,289.422 177.110,288.847 176.553 C 288.272 175.997,287.362 175.098,286.825 174.557 C 286.288 174.016,285.303 173.038,284.636 172.384 C 283.969 171.729,283.090 170.853,282.682 170.435 C 281.733 169.464,280.017 167.747,278.958 166.712 C 278.504 166.267,277.597 165.357,276.943 164.690 C 276.288 164.023,275.310 163.038,274.769 162.501 C 274.228 161.964,273.326 161.055,272.765 160.479 C 272.204 159.904,271.311 159.090,270.781 158.669 C 270.252 158.249,269.665 157.592,269.478 157.211 C 267.965 154.129,266.305 154.918,259.458 161.976 C 257.814 163.671,255.499 166.058,254.313 167.281 C 250.357 171.360,248.523 173.217,247.286 174.394 C 246.740 174.912,245.855 175.807,245.317 176.382 C 244.779 176.957,243.809 177.928,243.159 178.539 C 242.510 179.150,241.622 180.013,241.186 180.458 C 240.750 180.903,237.551 184.141,234.078 187.653 C 230.605 191.166,227.763 194.144,227.763 194.272 C 227.763 194.401,227.220 194.888,226.557 195.355 C 225.894 195.823,224.905 196.827,224.359 197.587 C 223.813 198.346,222.905 199.259,222.341 199.615 C 221.778 199.971,220.827 200.924,220.229 201.734 C 219.631 202.543,218.620 203.565,217.981 204.004 C 217.343 204.443,216.486 205.329,216.078 205.973 C 215.669 206.616,214.672 207.620,213.863 208.203 C 213.054 208.787,212.102 209.758,211.748 210.363 C 211.391 210.971,210.628 211.729,210.038 212.061 C 209.451 212.390,208.479 213.195,207.876 213.848 C 206.353 215.501,206.385 215.496,204.982 214.282 C 204.291 213.683,203.269 212.961,202.713 212.677 C 201.707 212.164,200.000 210.458,200.000 209.966 C 200.000 209.825,199.336 209.268,198.524 208.729 C 197.658 208.154,196.701 207.208,196.209 206.442 C 195.708 205.661,194.920 204.888,194.249 204.519 C 193.542 204.131,192.743 203.327,192.090 202.347 C 191.350 201.236,190.691 200.608,189.785 200.149 C 188.106 199.298,187.805 198.607,188.260 196.648 C 188.662 194.918,188.445 195.194,193.216 190.325 C 195.192 188.308,197.739 185.678,198.876 184.482 C 200.013 183.285,201.361 181.890,201.871 181.382 C 202.382 180.874,203.291 179.922,203.893 179.267 C 204.494 178.611,205.790 177.277,206.773 176.302 C 207.756 175.326,208.819 174.143,209.136 173.671 C 209.454 173.200,210.142 172.549,210.666 172.225 C 211.190 171.902,212.103 170.982,212.694 170.181 C 213.285 169.381,214.252 168.406,214.843 168.015 C 215.433 167.624,216.287 166.733,216.740 166.034 C 217.193 165.335,218.096 164.388,218.748 163.929 C 219.399 163.470,220.367 162.488,220.899 161.747 C 221.432 161.006,222.290 160.139,222.808 159.819 C 223.325 159.499,224.232 158.583,224.823 157.782 C 225.414 156.982,226.374 156.012,226.956 155.627 C 227.538 155.242,228.398 154.329,228.867 153.597 C 229.337 152.866,230.047 152.099,230.446 151.893 C 231.159 151.524,232.539 150.072,233.510 148.670 C 233.780 148.280,234.471 147.664,235.045 147.302 C 235.620 146.939,236.482 146.044,236.960 145.312 C 237.439 144.581,238.375 143.639,239.040 143.219 C 239.719 142.789,240.590 141.899,241.029 141.186 C 241.459 140.488,242.258 139.650,242.805 139.323 C 245.109 137.947,245.283 137.636,245.283 134.897 C 245.283 132.139,245.299 132.168,242.928 130.617 C 242.191 130.134,241.392 129.308,241.031 128.654 C 240.643 127.950,239.913 127.220,239.089 126.713 C 238.240 126.191,237.429 125.371,236.819 124.417 C 236.211 123.467,235.496 122.742,234.833 122.404 C 234.194 122.078,233.424 121.314,232.825 120.411 C 232.276 119.584,231.323 118.612,230.634 118.176 C 229.963 117.751,229.154 116.942,228.837 116.377 C 228.519 115.812,227.600 114.862,226.794 114.267 C 225.989 113.672,225.032 112.713,224.668 112.137 C 224.304 111.560,223.480 110.727,222.838 110.285 C 222.195 109.843,221.314 108.968,220.879 108.341 C 220.445 107.714,219.453 106.731,218.674 106.156 C 217.896 105.581,217.081 104.767,216.864 104.347 C 216.495 103.634,215.723 102.900,213.767 101.403 C 213.323 101.064,212.705 100.336,212.395 99.786 C 212.085 99.237,211.266 98.423,210.577 97.978 C 209.887 97.534,208.867 96.507,208.308 95.697 C 207.750 94.887,206.871 94.008,206.355 93.743 C 205.839 93.479,205.058 92.740,204.618 92.101 C 203.786 90.891,201.790 88.949,201.379 88.949 C 201.249 88.949,200.794 88.417,200.369 87.767 C 199.944 87.117,198.975 86.095,198.216 85.497 C 197.457 84.899,196.567 83.974,196.237 83.441 C 195.908 82.908,195.110 82.109,194.465 81.665 C 193.819 81.220,192.905 80.319,192.433 79.662 C 191.961 79.004,190.918 78.031,190.116 77.499 C 188.381 76.346,188.140 75.812,188.140 73.113 C 188.140 71.032,188.692 69.811,189.633 69.811 C 190.221 69.811,191.381 68.697,192.316 67.235 C 192.910 66.307,193.621 65.596,194.301 65.249 C 194.976 64.905,195.658 64.225,196.179 63.377 C 196.630 62.645,197.539 61.674,198.198 61.220 C 198.858 60.766,199.839 59.781,200.377 59.031 C 201.167 57.933,201.748 57.482,203.370 56.712 C 204.477 56.187,205.452 55.644,205.537 55.507 C 205.908 54.907,207.033 55.943,219.974 68.801 C 264.265 112.805,264.875 113.400,266.163 113.892 C 267.752 114.499,268.475 114.200,269.479 112.523 C 269.925 111.777,270.726 110.977,271.511 110.491 C 272.308 109.998,273.128 109.174,273.639 108.352 C 274.142 107.543,274.931 106.744,275.636 106.331 C 276.278 105.955,277.182 105.096,277.646 104.422 C 278.110 103.748,279.086 102.767,279.817 102.242 C 280.547 101.718,281.458 100.754,281.841 100.100 C 282.263 99.380,283.010 98.634,283.735 98.209 C 284.471 97.778,285.278 96.967,285.830 96.103 C 286.389 95.230,287.190 94.427,287.945 93.985 C 288.696 93.545,289.432 92.810,289.870 92.063 C 290.260 91.397,291.123 90.479,291.787 90.021 C 292.452 89.564,293.463 88.557,294.034 87.784 C 294.605 87.011,295.520 86.139,296.068 85.845 C 296.626 85.545,297.435 84.731,297.909 83.993 C 298.412 83.210,299.321 82.315,300.153 81.783 C 301.020 81.228,301.822 80.426,302.265 79.670 C 302.712 78.907,303.442 78.180,304.214 77.728 C 304.985 77.276,305.750 76.513,306.253 75.695 C 306.748 74.891,307.521 74.116,308.259 73.683 C 309.008 73.244,309.806 72.438,310.380 71.541 C 310.977 70.607,311.680 69.908,312.382 69.551 C 313.083 69.193,313.786 68.494,314.381 67.563 C 314.933 66.700,315.800 65.815,316.554 65.342 C 317.262 64.898,318.101 64.060,318.479 63.418 C 318.848 62.793,319.694 61.907,320.359 61.450 C 321.024 60.992,322.065 59.945,322.673 59.122 C 323.483 58.025,324.147 57.460,325.164 57.001 C 325.926 56.657,326.974 56.069,327.493 55.694 C 328.768 54.774,328.691 54.747,330.704 56.806 M0.000 202.156 L 0.000 269.542 65.499 269.542 L 130.997 269.542 130.997 268.514 C 130.997 267.384,130.450 266.737,128.375 265.416 C 127.714 264.995,127.001 264.233,126.680 263.603 C 126.319 262.896,125.655 262.227,124.775 261.685 C 123.917 261.157,123.059 260.304,122.426 259.348 C 121.813 258.422,121.026 257.630,120.385 257.293 C 119.747 256.957,118.994 256.202,118.451 255.353 C 117.962 254.588,117.003 253.578,116.320 253.108 C 115.636 252.638,114.780 251.782,114.416 251.206 C 114.052 250.630,113.092 249.658,112.282 249.046 C 111.472 248.435,110.567 247.524,110.271 247.023 C 109.976 246.523,109.151 245.687,108.439 245.166 C 107.726 244.646,106.788 243.685,106.355 243.032 C 105.921 242.378,104.991 241.467,104.288 241.007 C 103.540 240.517,102.748 239.695,102.379 239.026 C 101.983 238.309,101.193 237.516,100.259 236.897 C 99.275 236.246,98.559 235.512,98.149 234.735 C 97.764 234.005,97.052 233.250,96.276 232.749 C 95.588 232.305,94.561 231.274,93.994 230.458 C 93.427 229.643,92.551 228.763,92.047 228.504 C 91.543 228.245,90.912 227.716,90.646 227.328 C 89.783 226.074,88.069 224.247,87.354 223.821 C 86.971 223.593,86.354 222.920,85.984 222.327 C 85.613 221.734,84.746 220.843,84.056 220.347 C 83.366 219.851,82.421 218.892,81.955 218.215 C 81.490 217.538,80.669 216.686,80.131 216.320 C 79.594 215.955,78.717 215.078,78.182 214.371 C 77.648 213.664,76.613 212.634,75.882 212.081 C 75.151 211.529,74.343 210.667,74.086 210.166 C 73.829 209.664,72.950 208.750,72.133 208.133 C 71.317 207.517,70.275 206.469,69.818 205.805 C 69.361 205.141,68.475 204.242,67.849 203.807 C 67.224 203.373,66.243 202.364,65.671 201.566 C 65.098 200.767,64.230 199.852,63.740 199.531 C 63.251 199.210,62.508 198.487,62.088 197.924 C 61.669 197.361,59.748 195.302,57.819 193.348 C 55.891 191.394,52.190 187.586,49.596 184.885 C 47.001 182.184,44.210 179.295,43.392 178.464 C 42.574 177.634,39.481 174.409,36.518 171.299 C 28.517 162.899,24.326 158.547,22.496 156.739 C 21.595 155.849,20.335 154.480,19.695 153.696 C 19.054 152.911,18.208 152.103,17.814 151.899 C 17.419 151.695,16.677 150.906,16.163 150.146 C 15.649 149.386,14.581 148.271,13.788 147.669 C 12.996 147.067,12.114 146.179,11.828 145.695 C 11.543 145.211,10.570 144.171,9.665 143.385 C 8.761 142.599,7.802 141.594,7.534 141.153 C 7.266 140.712,6.472 139.914,5.769 139.380 C 5.067 138.847,4.094 137.803,3.608 137.062 C 2.261 135.012,1.981 134.771,0.943 134.771 L 0.000 134.771 0.000 202.156 " stroke="none" fill="#ffffff" fill-rule="evenodd"></path></g></svg>